<?xml version="1.0" encoding="UTF-8"?>
<svg version="1.1" xmlns="http://www.w3.org/2000/svg" width="679" height="289">
<path d="M0 0 C224.07 0 448.14 0 679 0 C679 95.37 679 190.74 679 289 C454.93 289 230.86 289 0 289 C0 193.63 0 98.26 0 0 Z " fill="#1C152E" transform="translate(0,0)"/>
<path d="M0 0 C1.75686595 0.0186824 3.51378447 0.0329023 5.27072144 0.0428772 C9.86538939 0.08081826 14.45682837 0.17882258 19.05023193 0.28991699 C23.7491895 0.39274773 28.44867588 0.43799853 33.1484375 0.48828125 C42.34776265 0.59510023 51.54470522 0.76546395 60.7421875 0.9765625 C59.1145273 5.10303369 56.12638678 7.85272745 53.02661133 10.90332031 C52.44259552 11.48602188 51.85857971 12.06872345 51.25686646 12.66908264 C49.32553878 14.59392175 47.38733351 16.51168457 45.44921875 18.4296875 C44.10070229 19.77192915 42.75270263 21.11469019 41.40519714 22.45794678 C37.85288068 25.99695644 34.29505106 29.53036694 30.7355957 33.06219482 C25.05539469 38.69931584 19.38176801 44.34303181 13.71155357 49.99019623 C11.73823924 51.95336758 9.76150044 53.91304031 7.78437805 55.87237549 C2.47610852 61.14529104 -2.75919462 66.39703422 -7.6085968 72.10125732 C-11.09729902 76.06822255 -14.91175194 79.73012677 -18.6640625 83.4453125 C-19.98935974 84.76492981 -19.98935974 84.76492981 -21.34143066 86.11120605 C-24.6175357 89.37313195 -27.8981623 92.63048814 -31.17913818 95.88751221 C-34.40611788 99.0914351 -37.6291933 102.29925366 -40.8515625 105.5078125 C-41.69029907 106.33825073 -42.52903564 107.16868896 -43.39318848 108.02429199 C-54.65150536 119.23599059 -62.53030193 127.73745408 -62.64941406 144.20996094 C-62.4901198 153.39852024 -59.42462441 161.11835396 -53.2578125 167.9765625 C-50.72770674 169.97099682 -50.72770674 169.97099682 -47.9453125 171.6640625 C-46.58986328 172.53611328 -46.58986328 172.53611328 -45.20703125 173.42578125 C-39.67685797 176.33370018 -34.42141267 177.22613121 -28.22094727 177.29541016 C-27.55668228 177.30545578 -26.8924173 177.3155014 -26.20802307 177.32585144 C-24.03842949 177.35644819 -21.86895791 177.37365207 -19.69921875 177.390625 C-18.1846361 177.40935566 -16.67006368 177.42893046 -15.15550232 177.4493103 C-11.18871108 177.50043731 -7.22188609 177.54016638 -3.25494385 177.57745361 C0.80082416 177.61761577 4.85645408 177.66865213 8.91210938 177.71875 C16.8553741 177.8152789 24.79870769 177.89975661 32.7421875 177.9765625 C28.85885988 173.47232247 24.94960297 169.0598993 20.7109375 164.8828125 C19.81761719 163.99722656 18.92429688 163.11164063 18.00390625 162.19921875 C17.09253906 161.30074219 16.18117187 160.40226563 15.2421875 159.4765625 C9.77026379 154.08203517 4.39968661 148.69485249 -0.59960938 142.85742188 C-3.49439245 139.57394001 -6.63373079 136.53981146 -9.7578125 133.4765625 C-14.31072319 128.97266773 -18.75807121 124.45784547 -22.89453125 119.5625 C-24.89435013 117.23606313 -27.05630074 115.11136178 -29.2578125 112.9765625 C-27.70280269 109.15972024 -25.22185755 106.78460518 -22.2578125 103.9765625 C-15.88812556 106.77301042 -11.45303089 112.53141729 -7.0078125 117.7265625 C-3.47722917 121.84017794 0.33664774 125.63159962 4.21582031 129.41308594 C6.89658058 132.0473487 9.42712985 134.74202762 11.8671875 137.6015625 C16.84714663 143.35861415 22.32879425 148.63244485 27.7421875 153.9765625 C39.71939847 165.8005002 39.71939847 165.8005002 45.13720703 172.15332031 C48.57011535 176.05307074 52.37391361 179.60616403 56.10742188 183.21484375 C56.70748047 183.80394531 57.30753906 184.39304688 57.92578125 185 C58.46775146 185.52513184 59.00972168 186.05026367 59.56811523 186.59130859 C60.7421875 187.9765625 60.7421875 187.9765625 60.7421875 189.9765625 C48.15458804 190.04624985 35.56703493 190.09946876 22.97928143 190.13199902 C17.13349757 190.14761643 11.28784626 190.16878286 5.44213867 190.20288086 C-0.20536276 190.23561441 -5.85273714 190.253445 -11.50032616 190.26119423 C-13.64876491 190.26671267 -15.79719716 190.27748853 -17.94558144 190.29375267 C-39.57230851 190.450879 -39.57230851 190.450879 -48.2578125 186.9765625 C-48.2578125 186.3165625 -48.2578125 185.6565625 -48.2578125 184.9765625 C-48.9178125 184.9353125 -49.5778125 184.8940625 -50.2578125 184.8515625 C-58.83561324 182.34970395 -65.74043007 174.26867284 -70.54296875 167.04296875 C-76.85064975 155.50686775 -78.15635498 141.84997545 -74.6328125 129.2890625 C-70.63541032 116.39146144 -61.71209477 107.90279117 -52.35546875 98.71875 C-50.98980549 97.36311124 -49.62511173 96.00649519 -48.26133728 94.6489563 C-44.68719523 91.09562952 -41.10164196 87.55405631 -37.51300049 84.01538086 C-31.77138093 78.3493573 -26.04846425 72.66442816 -20.32360649 66.98147964 C-18.33549007 65.01089633 -16.3431267 63.0446961 -14.34986877 61.07931519 C-8.96575519 55.758978 -3.64526827 50.46578342 1.25691223 44.69039917 C3.85707466 41.69011107 6.68933376 38.92599939 9.515625 36.140625 C10.12483795 35.53519867 10.7340509 34.92977234 11.36172485 34.30599976 C13.27775959 32.40202891 15.19704812 30.50139317 17.1171875 28.6015625 C19.6695258 26.07577813 22.2185511 23.54671673 24.765625 21.015625 C25.35097015 20.43857819 25.93631531 19.86153137 26.53939819 19.26699829 C29.5083226 16.40227463 29.5083226 16.40227463 31.7421875 12.9765625 C25.53367532 12.84668372 19.33022824 12.79045306 13.12036133 12.79956055 C11.01278182 12.79262613 8.90516658 12.76629892 6.7980957 12.71948242 C-6.870553 11.97137994 -6.870553 11.97137994 -18.60978699 17.80558777 C-20.69382539 20.0650604 -22.49603765 22.46054109 -24.2578125 24.9765625 C-25.36913658 26.28001429 -26.49088419 27.5748372 -27.6328125 28.8515625 C-28.16648437 29.47804688 -28.70015625 30.10453125 -29.25 30.75 C-32.47854672 34.33029501 -35.92891817 37.68959757 -39.37646484 41.05810547 C-42.2571424 43.89307194 -44.99621555 46.78708353 -47.6328125 49.8515625 C-52.12698331 55.05245784 -57.04047964 59.80784025 -61.94140625 64.62109375 C-65.29552165 67.93881731 -68.56320436 71.26733292 -71.6328125 74.8515625 C-76.90251894 80.97646701 -82.76982437 86.53083728 -88.51953125 92.19921875 C-93.01115144 96.65195045 -97.40549306 101.08961067 -101.40869141 105.99072266 C-103.2578125 107.9765625 -103.2578125 107.9765625 -105.86865234 109.88037109 C-110.7099039 113.65817678 -113.37161473 116.84393726 -114.14941406 122.98925781 C-114.58580981 129.02803485 -114.49176976 135.05255583 -114.3828125 141.1015625 C-114.38086832 143.22395904 -114.38343047 145.34636476 -114.390625 147.46875 C-114.39841 152.63958762 -114.34488076 157.80648754 -114.2578125 162.9765625 C-118.2178125 162.9765625 -122.1778125 162.9765625 -126.2578125 162.9765625 C-126.39683424 144.86107332 -126.50384499 126.74576779 -126.56868553 108.62985992 C-126.59959531 100.21789872 -126.64172023 91.80627549 -126.71044922 83.39453125 C-126.77034005 76.06097988 -126.80898258 68.72767333 -126.82234347 61.39388418 C-126.83015107 57.51222511 -126.84843888 53.6312663 -126.89219284 49.74983215 C-126.93308807 46.09217079 -126.94544822 42.43549432 -126.93645859 38.77762604 C-126.93888201 36.80379129 -126.9710823 34.83006249 -127.0043335 32.85650635 C-126.95690263 26.01916455 -126.38524566 21.68101824 -121.82102394 16.43813324 C-117.45122012 12.352456 -113.35344823 11.63676999 -107.6015625 11.48046875 C-100.00007243 13.08945082 -94.23782302 20.58987423 -88.92358398 25.88525391 C-87.31217698 27.48463732 -85.68301032 29.06441388 -84.05273438 30.64453125 C-83.0275054 31.66030858 -82.00337588 32.67719706 -80.98046875 33.6953125 C-80.04984619 34.61248047 -79.11922363 35.52964844 -78.16040039 36.47460938 C-76.2578125 38.9765625 -76.2578125 38.9765625 -76.37451172 41.21386719 C-77.94198801 44.34188786 -80.50939151 45.87138897 -83.2578125 47.9765625 C-86.93298012 46.45073501 -89.11283494 44.26151727 -91.8125 41.37109375 C-92.67488281 40.47068359 -93.53726563 39.57027344 -94.42578125 38.64257812 C-96.23264414 36.73794127 -98.02954383 34.82380366 -99.81640625 32.90039062 C-100.68136719 32.00384766 -101.54632813 31.10730469 -102.4375 30.18359375 C-103.21851074 29.3531958 -103.99952148 28.52279785 -104.80419922 27.66723633 C-107.60275546 25.31969491 -107.60275546 25.31969491 -113.2578125 26.9765625 C-113.5878125 51.0665625 -113.9178125 75.1565625 -114.2578125 99.9765625 C-112.6078125 98.3265625 -110.9578125 96.6765625 -109.2578125 94.9765625 C-107.50042778 93.23003821 -105.7425936 91.48396608 -103.984375 89.73828125 C-102.46868003 88.2299702 -100.95347187 86.721172 -99.43847656 85.2121582 C-98.4058514 84.1845568 -97.37232982 83.15785536 -96.33789062 82.13208008 C-91.06455727 76.90157156 -85.89348081 71.65261814 -81.06396484 66.00317383 C-76.31193253 60.67110838 -71.08013604 55.76603847 -65.99609375 50.75390625 C-61.46625207 46.26328398 -57.09586981 41.73279176 -52.94726562 36.88867188 C-49.25586236 32.71077153 -45.19680785 28.87841234 -41.21875 24.9765625 C-37.98221909 21.77752036 -34.84568225 18.5570874 -31.8828125 15.1015625 C-31.33454803 14.48799896 -30.78628357 13.87443542 -30.22140503 13.24227905 C-28.20827133 10.97652839 -28.20827133 10.97652839 -26.35818481 8.42056274 C-18.63307502 -0.91244844 -11.22958576 -0.3527794 0 0 Z " fill="#61E777" transform="translate(185.2578125,51.0234375)"/>
<path d="M0 0 C6.65654531 4.30006785 12.19149035 9.63697106 14.75 17.3125 C15.58149051 28.44259446 15.61076804 37.47051741 8.0234375 46.328125 C1.30641942 52.90693283 -6.65492829 55.49215079 -15.9375 55.75 C-25.56318785 55.38633765 -32.37209846 52.13799848 -39.25 45.3125 C-45.29864456 36.79267524 -46.20988346 28.6368279 -45.25 18.3125 C-42.64925067 9.30710161 -36.34601344 3.33460997 -28.3125 -1.125 C-19.54531711 -4.60452319 -8.34079677 -4.37383245 0 0 Z " fill="#60E677" transform="translate(385.25,121.6875)"/>
<path d="M0 0 C4.95 0 9.9 0 15 0 C15.33 11.55 15.66 23.1 16 35 C18.495625 32.525 20.99125 30.05 23.5625 27.5 C24.33408447 26.73751953 25.10566895 25.97503906 25.90063477 25.18945312 C31.36552751 19.74614974 36.58044039 14.15956237 41.2734375 8.03125 C46.71756422 1.47401187 46.71756422 1.47401187 51.11132812 0.56152344 C56.1123616 0.14089552 61.01852706 0.47989262 66 1 C61.71357027 6.11990218 57.23150082 11.03375743 52.69335938 15.92919922 C47.75847973 21.25278513 42.87327595 26.6199896 38 32 C39.6399691 35.71666911 42.00682013 38.76561851 44.5 41.9375 C45.40501252 43.10151227 46.30995858 44.26557623 47.21484375 45.4296875 C47.67745605 46.02233398 48.14006836 46.61498047 48.61669922 47.22558594 C54.17581178 54.35647724 59.67479988 61.53557325 65.125 68.75 C65.87007813 69.73484375 66.61515625 70.7196875 67.3828125 71.734375 C69 74 69 74 69 75 C63.0056551 75.76398513 56.93480354 76.47075874 51 75 C47.07166456 71.95670456 44.79814027 68.28880127 42.30712891 64.08105469 C39.78943057 60.07267579 36.78704975 56.41340114 33.875 52.6875 C32.74556022 51.21364443 31.61779873 49.73850032 30.4921875 48.26171875 C29.77071533 47.31752075 29.77071533 47.31752075 29.03466797 46.35424805 C28.69322754 45.90734619 28.35178711 45.46044434 28 45 C23.18178542 46.0775499 20.41452407 48.20686274 16.9296875 51.703125 C12.88289572 58.61707695 13.81227187 67.19801872 14 75 C9.38 75 4.76 75 0 75 C0 50.25 0 25.5 0 0 Z " fill="#60E877" transform="translate(268,101)"/>
<path d="M0 0 C6.17504108 3.5661074 9.03668027 7.8600408 11.25 14.5 C11.33544291 15.83528807 11.36774625 17.17443888 11.36352539 18.51245117 C11.36344986 19.31305466 11.36337433 20.11365814 11.36329651 20.93852234 C11.35813522 21.79798965 11.35297394 22.65745697 11.34765625 23.54296875 C11.3462413 24.4265657 11.34482635 25.31016266 11.34336853 26.22053528 C11.33777069 29.04289128 11.32521861 31.86516797 11.3125 34.6875 C11.30748472 36.60091031 11.30292186 38.51432187 11.29882812 40.42773438 C11.28780197 45.11852014 11.27053883 49.80924663 11.25 54.5 C6.63 54.5 2.01 54.5 -2.75 54.5 C-3.08 52.85 -3.41 51.2 -3.75 49.5 C-4.30945313 49.933125 -4.86890625 50.36625 -5.4453125 50.8125 C-12.69752859 55.84940892 -19.03403107 56.88002841 -27.75 55.5 C-32.20342651 53.87120049 -34.93647332 51.31352668 -38.25 48 C-40.58587482 42.54962541 -40.60329448 37.3320823 -39.75 31.5 C-37.62402116 26.70523921 -33.49527491 24.37833799 -28.75 22.5 C-25.40371741 21.70241733 -22.32219582 21.38017938 -18.88671875 21.40234375 C-17.55737305 21.40717773 -17.55737305 21.40717773 -16.20117188 21.41210938 C-15.28916016 21.42048828 -14.37714844 21.42886719 -13.4375 21.4375 C-12.50615234 21.44201172 -11.57480469 21.44652344 -10.61523438 21.45117188 C-8.32675627 21.46290766 -6.03841192 21.47932637 -3.75 21.5 C-4.16637453 16.27585215 -4.16637453 16.27585215 -7 12.0625 C-12.0544255 9.2490728 -18.19764284 9.8125653 -23.75 10.5 C-26.9585533 11.522506 -29.83812563 12.81457401 -32.75 14.5 C-33.61658615 13.23760288 -34.46792059 11.96472499 -35.3125 10.6875 C-36.02599609 9.62595703 -36.02599609 9.62595703 -36.75390625 8.54296875 C-37.75 6.5 -37.75 6.5 -36.75 3.5 C-34.5703125 2.1484375 -34.5703125 2.1484375 -31.875 0.875 C-30.54855469 0.23691406 -30.54855469 0.23691406 -29.1953125 -0.4140625 C-20.34499708 -4.34439427 -8.76237904 -4.02654778 0 0 Z " fill="#61E376" transform="translate(565.75,121.5)"/>
<path d="M0 0 C6.58434194 3.78385884 9.50634098 8.72796756 11.5 15.9375 C11.76082926 18.98006105 11.73363185 22.00286006 11.6953125 25.0546875 C11.6924826 25.91184357 11.68965271 26.76899963 11.68673706 27.65213013 C11.67559999 30.37239932 11.6505076 33.09233141 11.625 35.8125 C11.61496182 37.66405772 11.60583744 39.51562064 11.59765625 41.3671875 C11.57568188 45.8907536 11.541197 50.41406977 11.5 54.9375 C6.55 54.9375 1.6 54.9375 -3.5 54.9375 C-3.50410889 53.84284424 -3.50821777 52.74818848 -3.51245117 51.62036133 C-3.53427052 47.54778355 -3.58858831 43.47616809 -3.65258789 39.40405273 C-3.67574364 37.64373009 -3.69015794 35.88326939 -3.69555664 34.12280273 C-3.70486442 31.58750621 -3.74589048 29.05437372 -3.79296875 26.51953125 C-3.7890361 25.73600784 -3.78510345 24.95248444 -3.78105164 24.1452179 C-3.89338712 19.91105409 -4.14518079 18.37367447 -6.91918945 14.96362305 C-11.010087 11.75197242 -13.2935088 11.67717544 -18.5 11.9375 C-21.69623648 12.80800779 -21.69623648 12.80800779 -24.5 13.9375 C-25.49 14.2675 -26.48 14.5975 -27.5 14.9375 C-29.57981428 19.52288289 -29.83370302 24.00254043 -29.9140625 28.9609375 C-29.93342865 29.70711334 -29.9527948 30.45328918 -29.9727478 31.22207642 C-30.03212065 33.58543777 -30.0787578 35.94884897 -30.125 38.3125 C-30.16321884 39.92319732 -30.2022728 41.53387506 -30.2421875 43.14453125 C-30.33778676 47.07536016 -30.421972 51.00628463 -30.5 54.9375 C-35.12 54.9375 -39.74 54.9375 -44.5 54.9375 C-44.5 36.4575 -44.5 17.9775 -44.5 -1.0625 C-39.88 -1.0625 -35.26 -1.0625 -30.5 -1.0625 C-30.17 0.9175 -29.84 2.8975 -29.5 4.9375 C-28.95730469 4.51597656 -28.41460937 4.09445313 -27.85546875 3.66015625 C-27.14003906 3.11230469 -26.42460937 2.56445312 -25.6875 2 C-24.97980469 1.45472656 -24.27210938 0.90945312 -23.54296875 0.34765625 C-16.98616215 -4.1781701 -6.9370575 -3.18165795 0 0 Z " fill="#61E578" transform="translate(457.5,121.0625)"/>
<path d="M0 0 C4.95 0 9.9 0 15 0 C15 4.95 15 9.9 15 15 C19.95 15 24.9 15 30 15 C30 18.63 30 22.26 30 26 C25.05 26 20.1 26 15 26 C15.09686089 30.23638958 15.19953562 34.47178245 15.31738281 38.70751953 C15.35569674 40.1488374 15.39054543 41.59025168 15.421875 43.03173828 C15.46747446 45.10223886 15.52547444 47.17207433 15.5859375 49.2421875 C15.63306885 51.11173096 15.63306885 51.11173096 15.68115234 53.01904297 C15.69682309 56.11541776 15.69682309 56.11541776 18 58 C22.16937798 58.23600253 25.94392005 57.98329211 30 57 C31.29243536 61.1196377 32.26252625 64.66831683 32 69 C25.15822795 71.55795982 17.54170358 72.66648336 10.51953125 70.08984375 C6.15237296 67.54165195 3.32068454 64.5485417 1 60 C0.08700224 55.72175958 -0.11768762 51.65590018 -0.09765625 47.2890625 C-0.09443359 46.04511719 -0.09121094 44.80117187 -0.08789062 43.51953125 C-0.07951172 42.23433594 -0.07113281 40.94914062 -0.0625 39.625 C-0.05798828 38.31660156 -0.05347656 37.00820312 -0.04882812 35.66015625 C-0.03707594 32.44005719 -0.02064543 29.2200523 0 26 C-2.97 26 -5.94 26 -9 26 C-9 22.04 -9 18.08 -9 14 C-6.03 14 -3.06 14 0 14 C0 9.38 0 4.76 0 0 Z " fill="#5FDE74" transform="translate(486,106)"/>
<path d="M0 0 C4.8046547 2.40232735 8.65631038 5.75275009 10.75 10.8125 C11.56246685 17.92158495 11.29227413 23.08007452 7 29 C2.18630537 32.83130797 -1.7408323 34.3872095 -7.94140625 34.2734375 C-12.77874022 33.63090737 -15.39571472 30.73150323 -18.375 27.125 C-21.22025463 21.55505238 -20.94888695 15.0332215 -20 9 C-15.82738398 0.76244838 -8.68055844 -1.11253993 0 0 Z " fill="#1B162D" transform="translate(375,131)"/>
<path d="M0 0 C4.62 0 9.24 0 14 0 C14 18.48 14 36.96 14 56 C9.38 56 4.76 56 0 56 C0 37.52 0 19.04 0 0 Z " fill="#63E778" transform="translate(593,120)"/>
<path d="M0 0 C0.88816406 0.01353516 1.77632812 0.02707031 2.69140625 0.04101562 C4.87822578 0.07628691 7.06379966 0.12557248 9.25 0.1875 C9.4609375 6.8359375 9.4609375 6.8359375 7.5625 10 C2.88942049 14.42048061 -2.02111824 14.63801078 -8.20703125 14.49609375 C-10.75 14.1875 -10.75 14.1875 -13.5 12.625 C-15.31873125 9.07847406 -14.8472376 6.95925426 -13.75 3.1875 C-10.13312141 -1.05163727 -5.10536008 -0.14705247 0 0 Z " fill="#1E1C2E" transform="translate(553.75,151.8125)"/>
<path d="M0 0 C3.50811779 2.43420418 4.77376734 3.79342584 5.5625 8 C4.83463003 11.88197317 4.02042858 13.42158536 1 16 C-2.07630066 17.03882541 -4.77123652 17.3734335 -8 17 C-11.0625 15.0625 -11.0625 15.0625 -13 12 C-13.85997375 8.11476146 -13.58046389 5.00950242 -11.5625 1.5 C-7.73473876 -0.74064073 -4.32011646 -0.8840096 0 0 Z " fill="#5FDE72" transform="translate(604,95)"/>
<path d="M0 0 C1.75542796 0.02055567 3.51091969 0.03619518 5.26643372 0.04716492 C9.85318961 0.08886265 14.43601969 0.1966268 19.02124023 0.31890869 C23.71348977 0.43210875 28.40638352 0.48181614 33.09960938 0.53710938 C42.28296069 0.65454258 51.46341767 0.84189037 60.64453125 1.07421875 C59.98453125 2.39421875 59.32453125 3.71421875 58.64453125 5.07421875 C58.14953125 3.58921875 58.14953125 3.58921875 57.64453125 2.07421875 C48.0380645 1.97287604 38.43327869 1.92603971 28.82629585 1.94724846 C24.36435343 1.95541894 19.90405331 1.94538199 15.44238281 1.89257812 C11.12980193 1.84222784 6.81968189 1.84121623 2.50695419 1.87326431 C0.86842387 1.87699251 -0.77024673 1.8634562 -2.40847397 1.83172226 C-12.10367223 1.45548496 -12.10367223 1.45548496 -20.65533447 5.38043213 C-23.12133012 7.83043972 -25.2991707 10.2755754 -27.35546875 13.07421875 C-28.01546875 12.74421875 -28.67546875 12.41421875 -29.35546875 12.07421875 C-20.87899112 0.67326269 -13.73826632 -0.47624517 0 0 Z " fill="#54C86C" transform="translate(185.35546875,50.92578125)"/>
<path d="M0 0 C14.85 0 29.7 0 45 0 C44.67 0.99 44.34 1.98 44 3 C22.22 2.505 22.22 2.505 0 2 C0 1.34 0 0.68 0 0 Z " fill="#253132" transform="translate(172,64)"/>
<path d="M0 0 C0 3 0 3 -1.28515625 4.54296875 C-1.87167969 5.08566406 -2.45820313 5.62835938 -3.0625 6.1875 C-5.55830984 8.56941376 -7.86165756 10.96939165 -10.0625 13.625 C-15.48473111 19.94677176 -21.84955059 25.40402939 -28 31 C-28.66 30.67 -29.32 30.34 -30 30 C-20.1 20.1 -10.2 10.2 0 0 Z " fill="#262D39" transform="translate(166,134)"/>
<path d="M0 0 C0.33 0.66 0.66 1.32 1 2 C-4.91781611 9.08470943 -11.43141333 15.52848604 -18 22 C-18.33 21.01 -18.66 20.02 -19 19 C-18.34 19 -17.68 19 -17 19 C-16.731875 18.360625 -16.46375 17.72125 -16.1875 17.0625 C-15 15 -15 15 -12 14 C-11.71382812 13.42765625 -11.42765625 12.8553125 -11.1328125 12.265625 C-9.57911246 9.15822492 -7.35590353 7.16729061 -4.875 4.75 C-3.96492187 3.85796875 -3.05484375 2.9659375 -2.1171875 2.046875 C-1.41851562 1.37140625 -0.71984375 0.6959375 0 0 Z " fill="#20202F" transform="translate(182,98)"/>
<path d="M0 0 C0.33 0.99 0.66 1.98 1 3 C0.5153125 3.4125 0.030625 3.825 -0.46875 4.25 C-7.14917975 10.00544717 -13.69091991 15.92122655 -19 23 C-19.99 22.67 -20.98 22.34 -22 22 C-14.74 14.74 -7.48 7.48 0 0 Z " fill="#263239" transform="translate(208,91)"/>
<path d="M0 0 C0.66 0.66 1.32 1.32 2 2 C-3.61 7.61 -9.22 13.22 -15 19 C-15.66 18.67 -16.32 18.34 -17 18 C-14.3544182 15.18726331 -11.70849239 12.37485045 -9.0625 9.5625 C-8.30775391 8.76005859 -7.55300781 7.95761719 -6.77539062 7.13085938 C-6.05673828 6.36708984 -5.33808594 5.60332031 -4.59765625 4.81640625 C-3.93258057 4.10943604 -3.26750488 3.40246582 -2.58227539 2.67407227 C-1.73112195 1.77353853 -0.87619153 0.87619153 0 0 Z " fill="#56CF6E" transform="translate(311,108)"/>
<path d="M0 0 C0.66 0.33 1.32 0.66 2 1 C-0.64 3.97 -3.28 6.94 -6 10 C-6.66 9.34 -7.32 8.68 -8 8 C-5.36 5.36 -2.72 2.72 0 0 Z " fill="#242639" transform="translate(100,119)"/>
<path d="M0 0 C0.66 0.33 1.32 0.66 2 1 C0.87895467 2.31587941 -0.24696965 3.62760353 -1.375 4.9375 C-2.00148437 5.66839844 -2.62796875 6.39929688 -3.2734375 7.15234375 C-5 9 -5 9 -7 10 C-6.42424336 6.64749299 -5.40693737 5.06181371 -2.9375 2.75 C-2.38964844 2.22921875 -1.84179688 1.7084375 -1.27734375 1.171875 C-0.64505859 0.59179688 -0.64505859 0.59179688 0 0 Z " fill="#212235" transform="translate(150,67)"/>
<path d="M0 0 C0.33 0.66 0.66 1.32 1 2 C-1.31 4.64 -3.62 7.28 -6 10 C-6.66 9.34 -7.32 8.68 -8 8 C-5.36 5.36 -2.72 2.72 0 0 Z " fill="#242638" transform="translate(128,90)"/>
<path d="M0 0 C1.75 0.9375 1.75 0.9375 2.75 2.9375 C-3.875 4.9375 -3.875 4.9375 -7.25 4.9375 C-2.8452381 -0.07903439 -2.8452381 -0.07903439 0 0 Z " fill="#273B3A" transform="translate(295.25,145.0625)"/>
<path d="M0 0 C-0.99 0.33 -1.98 0.66 -3 1 C-3.33 1.66 -3.66 2.32 -4 3 C-6.31 3 -8.62 3 -11 3 C-10 1 -10 1 -7.1875 -0.1875 C-4.14038924 -0.96421451 -2.86250637 -1.10096399 0 0 Z " fill="#4AB064" transform="translate(366,120)"/>
</svg>
